<?xml version="1.0" encoding="utf-8"?>
<!-- Generator: Adobe Illustrator 20.0.0, SVG Export Plug-In . SVG Version: 6.00 Build 0)  -->
<svg version="1.1" id="Layer_1" xmlns="http://www.w3.org/2000/svg" xmlns:xlink="http://www.w3.org/1999/xlink" x="0px" y="0px"
	 viewBox="0 0 75 75" style="enable-background:new 0 0 75 75;" xml:space="preserve">
<style type="text/css">
	.st0{fill:#F4F0EF;}
	.st1{fill:none;stroke:#000000;stroke-width:13.7462;stroke-miterlimit:10;}
	.st2{fill:none;stroke:#F4F0EF;stroke-width:2;stroke-miterlimit:10;}
	.st3{fill:#00F0BB;}
	.st4{fill:none;stroke:#F4F0EF;stroke-width:1.9321;stroke-miterlimit:10;}
	.st5{fill:#29367E;}
	.st6{fill:#FF3334;}
	.st7{fill:#F7E829;}
	.st8{fill:#00B48C;}
	.st9{fill:none;}
	.st10{fill:none;stroke:#29367E;stroke-width:1.1605;stroke-linecap:round;stroke-miterlimit:10;}
	.st11{fill:#B9AE1F;}
	.st12{fill:none;stroke:#F4F0EF;stroke-width:3.3559;stroke-linecap:round;stroke-miterlimit:10;}
	.st13{fill:none;stroke:#FF3334;stroke-width:1.0958;stroke-linecap:round;stroke-miterlimit:10;}
	.st14{fill:none;stroke:#00F0BB;stroke-width:4;stroke-miterlimit:10;}
	.st15{fill:none;stroke:#000000;stroke-width:2;stroke-miterlimit:10;}
	.st16{fill:none;stroke:#00F0BB;stroke-miterlimit:10;}
	.st17{fill:none;stroke:#F4F0EF;stroke-width:8;stroke-miterlimit:10;}
</style>
<circle cx="37.3" cy="37.4" r="35.6"/>
<g>
	<circle class="st5" cx="55.6" cy="47.4" r="6.5"/>
	<circle class="st5" cx="51.6" cy="37.6" r="14.2"/>
	<circle class="st5" cx="22.7" cy="42.3" r="11.7"/>
	<path class="st3" d="M47.2,44.8c0-3.4,2.6-6.2,5.7-6.2c1.2,0,2.4,0.4,3.3,1.2v-3.8c0-10.8-8-19.6-18-19.6h0c-9.9,0-18,8.8-18,19.6
		v4c1-0.8,2.2-1.3,3.5-1.3c3.2,0,5.7,2.8,5.7,6.2c0,3.4-2.6,6.2-5.7,6.2c-1,0-1.9-0.3-2.7-0.7c2.3,7.9,9.1,13.6,17.1,13.6h0
		c8,0,14.7-5.7,17.1-13.5C54.7,50.8,53.8,51,53,51C49.8,51,47.2,48.2,47.2,44.8z"/>
	<path class="st8" d="M29.6,44.8c0-3.4-2.6-6.2-5.7-6.2c-1.3,0-2.6,0.5-3.5,1.3v4.5c0,2.1,0.3,4.1,0.8,5.9c0.8,0.5,1.7,0.7,2.7,0.7
		C27.1,51,29.6,48.2,29.6,44.8z"/>
	<path class="st8" d="M56.3,39.7c-0.9-0.7-2.1-1.2-3.3-1.2c-3.2,0-5.7,2.8-5.7,6.2c0,3.4,2.6,6.2,5.7,6.2c0.9,0,1.7-0.2,2.4-0.6
		c0.6-1.9,0.9-4,0.9-6.1V39.7z"/>
	<path class="st9" d="M40.8,11.6C40.8,11.6,40.8,11.6,40.8,11.6C40.8,11.5,40.8,11.5,40.8,11.6C40.8,11.5,40.8,11.5,40.8,11.6z"/>
	<circle class="st0" cx="28.8" cy="35.9" r="3.6"/>
	<circle class="st0" cx="48" cy="35.9" r="3.6"/>
	<path class="st5" d="M38.8,46.6h-0.9c-1.5,0-2.7-1.2-2.7-2.7V35c0-1.5,1.2-2.7,2.7-2.7h0.9c1.5,0,2.7,1.2,2.7,2.7v8.9
		C41.6,45.4,40.3,46.6,38.8,46.6z"/>
	<path class="st10" d="M22.4,32.9c0,0,2.2-5,9.5-3.2"/>
	<path class="st10" d="M54.7,32.9c0,0-2.2-5-9.5-3.2"/>
	<path class="st0" d="M47.4,49.9c0,5-4.1,9.1-9.1,9.1s-9.1-4.1-9.1-9.1H47.4z"/>
	<circle cx="29.3" cy="35.9" r="3.2"/>
	<circle cx="48.5" cy="35.9" r="3.2"/>
	<circle class="st5" cx="23" cy="23.4" r="8.9"/>
	<circle class="st5" cx="17.3" cy="32.3" r="6.5"/>
	<circle class="st5" cx="50.9" cy="20.3" r="6.5"/>
	<circle class="st5" cx="36" cy="18" r="10.5"/>
</g>
</svg>
