<?xml version="1.0" encoding="utf-8"?>
<!-- Generator: Adobe Illustrator 23.0.0, SVG Export Plug-In . SVG Version: 6.00 Build 0)  -->
<svg version="1.1" id="Layer_1" xmlns="http://www.w3.org/2000/svg" xmlns:xlink="http://www.w3.org/1999/xlink" x="0px" y="0px"
	 viewBox="0 0 450 850" style="enable-background:new 0 0 450 850;" xml:space="preserve">
<style type="text/css">
	.st0{clip-path:url(#SVGID_2_);}
	.st1{fill:#00F0BA;}
	.st2{fill:#29367D;}
	.st3{fill:#F5F0F0;}
	.st4{fill:#F7E829;}
	.st5{fill:#FF3333;}
	.st6{fill:none;stroke:#F5F0F0;stroke-width:2.27;stroke-linecap:round;stroke-linejoin:round;}
	.st7{fill:none;stroke:#FF3333;stroke-width:2.27;stroke-linecap:round;stroke-linejoin:round;}
	.st8{fill:none;stroke:#00F0BA;stroke-width:2.27;stroke-linecap:round;stroke-miterlimit:10;}
	.st9{fill:none;stroke:#29367D;stroke-width:2.27;stroke-miterlimit:10;}
</style>
<title>pattern2</title>
<g>
	<defs>
		<rect id="SVGID_1_" x="0.1" y="-1.9" width="449.9" height="854"/>
	</defs>
	<clipPath id="SVGID_2_">
		<use xlink:href="#SVGID_1_"  style="overflow:visible;"/>
	</clipPath>
	<g class="st0">
		<rect x="0.1" class="st1" width="449.9" height="850"/>
		<path class="st2" d="M-19.2-139c0,0-17.8,151-7.8,172.4s37.7,15.9,37.7,15.9s92.1-12.3,96.4-25.7C113.9,2.7,88-139,88-139H-19.2z"
			/>
		<path class="st2" d="M409.6,39C411,19.2,393,1.6,368.7-1.3c-83.5-9.8-261.6-29.6-294-25c-42.6,6-33.5,31.5-33.5,31.5
			s18.6,84,44.3,89.6c30.8,6.8,198.4,6.1,277.9,5.3c23.8-0.2,42.9-15.1,44.2-34.3L409.6,39z"/>
		<path class="st2" d="M130.4,302.3c15.9,0,29.3-12.1,30.8-28c5.2-55.7,15.3-176.9,6.3-198.4c-11-26.4-40.2-21.7-43.8-21
			c-0.3,0.1-0.7,0.1-1,0.2c-9.2,1.4-107.5,17-112.3,33.6c-6.2,21.1,10.2,135.1,18.2,187.4c2.3,15.1,15.3,26.2,30.6,26.2H130.4z"/>
		<path class="st3" d="M193-100.2c0,0,7.6,122.2,3.3,139.5s-16.1,12.9-16.1,12.9s-39.4-10-41.3-20.8c-2.9-17,8.2-131.6,8.2-131.6
			L193-100.2z"/>
		<path class="st4" d="M112-121c0,0,8.9,122.2,3.9,139.6S97.1,31.4,97.1,31.4S51.2,21.4,49,10.6C45.6-6.3,58.5-121,58.5-121H112z"/>
		<path class="st5" d="M57.5,331.2c13.3,0,24.2-10.3,25-23.5c3.1-52.3,9.7-175.2,4.1-196.6c-7.2-27.4-27.1-20.3-27.1-20.3
			s-66.2,15.8-69.4,32.8c-3.8,20.9,6.7,135.7,11.5,185.1c1.3,12.8,12,22.6,24.9,22.6H57.5z"/>
		<path class="st6" d="M93.3,95.5v15.9 M78.4,95v15.9 M65.3,92.3v15.9 M51.4,90.3v15.9 M39.1,88.3v15.9 M109.2,69.5v15.9 M97.7,73.6
			v15.9 M84.6,75.6v15.9 M70.7,73.6v15.9 M58.4,71.6v15.9 M103,48.3v15.9 M91.5,52.4v15.9 M78.4,54.4v15.9 M64.5,52.4v15.9
			 M52.2,50.4v15.9 M94.7,158.6v15.9 M79.8,158.1V174 M66.7,155.4v15.9 M52.8,153.4v15.9 M40.5,151.4v15.9 M110.5,132.6v15.9
			 M99.1,136.8v15.9 M86,138.7v15.9 M72,136.8v15.9 M59.7,134.8v15.9 M104.4,111.4v15.9 M92.9,119v15.9 M79.8,119.8v15.9
			 M65.9,116.7v15.9 M51.3,114.7v15.9"/>
		<path class="st6" d="M374.9,97.7v15.9 M360,97.2v15.9 M346.9,94.5v15.9 M332.9,92.5v15.9 M320.6,90.5v15.9 M390.7,71.7v15.9
			 M379.2,75.9v15.9 M366.1,77.9v15.9 M352.2,75.9v15.9 M339.9,73.9v15.9 M384.6,50.5v15.9 M373.1,54.7v15.9 M360,56.7v15.9
			 M346,54.7v15.9 M333.8,52.7v15.9 M376.2,160.8v15.9 M361.3,160.3v15.9 M348.2,157.6v15.9 M334.3,155.6v15.9 M322,153.7v15.9
			 M392.1,134.8v15.9 M380.6,139v15.9 M367.5,141v15.9 M353.6,139v15.9 M341.3,137v16 M385.9,113.7v15.9 M374.4,121.3v15.9
			 M361.3,122.1V138 M347.4,119v15.9 M332.9,117v15.9"/>
		<path class="st2" d="M58.4,512.5c0,14.8,11.2,27.3,26,28.8c44.2,4.5,130.6,12.3,146.5,4.9c20.1-9.3,16.5-34.3,16-37.4
			c0-0.3-0.1-0.6-0.1-0.9c-1.1-7.9-12.9-91.7-25.6-95.8c-15.5-5-97.2,7.8-138.6,14.9c-13.9,2.4-24.1,14.4-24.1,28.6L58.4,512.5z"/>
		<path class="st4" d="M384.7,240.3c0-15.9-12.4-29.1-28.3-30c-54.6-3.2-171-9.3-191.9-3.8c-27.4,7.2-20.3,27.1-20.3,27.1
			s15.8,66.2,32.8,69.3c20.3,3.7,129-6.1,180.5-11c15.4-1.5,27.1-14.5,27.1-29.9V240.3z"/>
		<path class="st2" d="M499.7,388.9c0-16-12.1-29.3-28-30.8c-55.7-5.2-176.9-15.3-198.4-6.3c-26.4,11-21.7,40.2-21,43.8l0.2,1
			c1.4,9.2,17,107.5,33.6,112.3c21.1,6.1,135.1-10.2,187.4-18.3c15.1-2.3,26.2-15.3,26.2-30.6L499.7,388.9z"/>
		<path class="st3" d="M97.2,341.6c0-8.6,6.7-15.7,15.3-16.2c33.4-1.9,110.7-5.8,124.2-2.4c17.4,4.3,12.9,16.1,12.9,16.1
			s-10,39.4-20.8,41.3c-13.2,2.3-85.3-3.9-116.8-6.8c-8.4-0.8-14.8-7.8-14.8-16.2V341.6z"/>
		<path class="st4" d="M76.4,426c0-10.6,8.3-19.3,18.8-20c35-2.2,107.6-6.4,120.7-2.6c17.4,5,12.9,18.8,12.9,18.8
			s-10,45.9-20.8,48.1c-12.8,2.5-80.7-4.1-113.6-7.6c-10.2-1.1-18-9.7-18-20L76.4,426z"/>
		<path class="st5" d="M528.6,461.7c0-13.3-10.3-24.2-23.5-25c-52.3-3.1-175.2-9.7-196.6-4.1c-27.4,7.2-20.3,27.1-20.3,27.1
			s15.8,66.3,32.8,69.4c20.9,3.8,135.7-6.7,185.1-11.5c12.8-1.3,22.6-12,22.6-24.9V461.7z"/>
		<path class="st6" d="M292.8,426h15.9 M292.3,440.9h15.9 M289.6,454h15.9 M287.7,467.9h15.9 M285.7,480.2h15.9 M266.9,410.1h15.9
			 M271,421.6h15.9 M273,434.7h15.9 M271,448.6h15.9 M269,460.9h16 M245.7,416.2h15.9 M249.9,427.7h15.9 M251.9,440.8h15.9
			 M249.9,454.8h15.9 M247.9,467.1h15.9 M356,424.6h15.9 M355.5,439.5h15.9 M352.8,452.6h15.9 M350.8,466.5h15.9 M348.8,478.8h15.9
			 M330,408.7h15.9 M334.1,420.2h15.9 M336.1,433.3h15.9 M334.1,447.2h15.9 M332.1,459.5h15.9 M308.8,414.9h15.9 M316.3,426.3h15.9
			 M317.2,439.5h15.9 M314.1,453.4H330 M312.1,468H328"/>
		<path class="st7" d="M124.9,287v-15.9 M139.8,287.5v-15.9 M152.9,290.2v-15.9 M166.8,292.2v-15.9 M179.1,294.2v-15.9 M109,313
			v-15.9 M120.5,308.9v-15.9 M133.6,306.9v-15.9 M147.5,308.9v-15.9 M159.8,310.8v-15.9 M115.2,334.2v-15.9 M126.6,330v-15.9
			 M139.8,328v-15.9 M153.7,330v-15.9 M166,332v-15.9 M119.1,245.7v-15.9 M132.2,243.7v-15.9 M146.2,245.7v-15.9 M158.5,247.7v-15.9
			 M113.8,271.1v-15.9 M125.3,263.5v-15.9 M138.4,262.7v-15.9 M152.3,265.8v-15.9 M166.9,267.8v-15.9"/>
		<path class="st8" d="M127.2,519.8h-15.9 M127.7,505h-15.9 M130.4,491.9h-15.9 M132.4,478h-15.9 M153.2,535.8h-15.9 M149.1,524.3
			h-15.9 M147.1,511.2h-15.9 M149.1,497.2h-15.9 M151.1,484.9h-15.9 M174.4,529.6h-15.9 M170.3,518.1h-15.9 M168.3,505h-15.9
			 M170.3,491h-15.9 M172.2,478.7h-15.9 M111.3,530.9h-16"/>
		<path class="st2" d="M223.1,1020.8c0,0,17.7-151,7.8-172.5s-37.7-15.9-37.7-15.9s-92.1,12.4-96.4,25.7
			c-6.8,21,19.1,162.7,19.1,162.7H223.1z"/>
		<path class="st2" d="M73.5,579.5c-15.9,0-29.3,12.1-30.8,28c-5.2,55.7-15.3,176.9-6.3,198.4c11,26.4,40.2,21.7,43.8,21
			c0.3-0.1,0.7-0.1,1-0.2c9.2-1.4,107.5-17,112.3-33.6c6.2-21.1-10.2-135.1-18.2-187.4c-2.3-15.1-15.3-26.2-30.6-26.2H73.5z"/>
		<path class="st3" d="M10.9,982c0,0-7.6-122.2-3.3-139.6s16.1-12.9,16.1-12.9s39.4,10,41.3,20.8c2.9,17-8.2,131.6-8.2,131.6
			L10.9,982z"/>
		<path class="st4" d="M91.8,1002.7c0,0-8.8-122.2-3.8-139.5s18.8-12.9,18.8-12.9s45.9,10,48.1,20.8c3.4,17-9.5,131.6-9.5,131.6
			H91.8z"/>
		<path class="st5" d="M146.3,550.5c-13.3,0-24.2,10.3-25,23.5c-3.1,52.3-9.7,175.2-4.1,196.6c7.2,27.4,27.1,20.3,27.1,20.3
			s66.3-15.8,69.4-32.8c3.8-20.9-6.7-135.7-11.5-185.1c-1.3-12.8-12-22.6-24.9-22.6L146.3,550.5z"/>
		<path class="st6" d="M110.5,786.3v-15.9 M125.4,786.8v-15.9 M138.5,789.5v-15.9 M152.5,791.5v-15.9 M164.8,793.5v-15.9
			 M94.7,812.3v-15.9 M106.1,808.1v-15.9 M119.3,806.2v-15.9 M133.2,808.1v-15.9 M145.5,810.1v-15.9 M100.8,833.5v-15.9
			 M112.3,829.3v-15.9 M125.4,827.3v-15.9 M139.3,829.3v-15.9 M151.6,831.3v-15.9 M109.2,723.2v-15.9 M124,723.7v-15.9 M137.2,726.4
			v-15.9 M151.1,728.4v-15.9 M163.4,730.4v-15.9 M93.3,749.2v-15.9 M104.8,745v-15.9 M117.9,743v-15.9 M131.8,745v-15.9 M144.1,747
			v-15.9 M99.5,770.4v-15.9 M110.9,762.8v-15.9 M124.1,762v-16 M138,765.1v-15.9 M152.6,767.1v-15.9"/>
		<path class="st4" d="M-180.8,641.4c0,15.9,12.4,29.1,28.3,30c54.6,3.2,171.1,9.3,191.9,3.8c27.4-7.2,20.3-27.1,20.3-27.1
			s-15.8-66.2-32.8-69.3c-20.3-3.7-129,6.1-180.5,11c-15.4,1.5-27.2,14.4-27.2,29.9L-180.8,641.4z"/>
		<path class="st3" d="M106.6,540.1c0,8.6-6.7,15.7-15.3,16.2c-33.4,1.9-110.7,5.8-124.2,2.4c-17.3-4.3-12.9-16.1-12.9-16.1
			s10-39.4,20.8-41.2c13.2-2.3,85.3,3.9,116.8,6.8c8.4,0.8,14.8,7.8,14.8,16.2V540.1z"/>
		<path class="st7" d="M79,594.8v15.9 M64.1,594.2v15.9 M51,591.6v15.9 M37,589.6v15.9 M24.8,587.6v15.9 M94.8,568.8v15.9
			 M83.4,572.9v15.9 M70.2,574.9v15.9 M56.3,572.9v15.9 M44,570.9v15.9 M88.7,547.6v15.9 M77.2,551.7v15.9 M64.1,553.7v15.9
			 M50.2,551.7v15.9 M37.9,549.7v15.9 M84.7,636v16 M71.6,638v16 M57.7,636v16 M45.4,634v16 M90.1,610.7v15.9 M78.6,618.3v15.9
			 M65.5,619.1V635 M51.5,616v15.9 M37,614v15.9"/>
		<path class="st2" d="M338.7,765.8c-15.9,0-29.1,12.4-30,28.3c-3.2,54.6-9.3,171.1-3.8,191.9c7.2,27.4,27.1,20.3,27.1,20.3
			s66.3-15.8,69.4-32.8c3.7-20.3-6.1-129-11-180.5c-1.5-15.4-14.4-27.2-29.9-27.2H338.7z"/>
		<path class="st2" d="M487.3,650.8c-16,0-29.3,12.1-30.8,28c-5.2,55.7-15.3,176.9-6.3,198.4c11,26.4,40.2,21.7,43.8,21
			c0.4-0.1,0.7-0.1,1-0.2c9.2-1.4,107.5-17,112.3-33.6c6.1-21.1-10.3-135.1-18.3-187.4c-2.3-15.1-15.3-26.2-30.6-26.2L487.3,650.8z"
			/>
		<path class="st5" d="M383.7,705.5c-13.2,0-24.2,10.3-25,23.5c-3.1,52.3-9.7,175.2-4.1,196.6c7.2,27.4,27.1,20.3,27.1,20.3
			s66.2-15.8,69.4-32.8c3.8-20.9-6.7-135.7-11.5-185.1c-1.3-12.8-12-22.6-24.9-22.6L383.7,705.5z"/>
		<path class="st5" d="M391.6-118.2c-13.3,0-24.2,10.3-25,23.6c-3.1,52.3-9.7,175.2-4.1,196.6c7.2,27.4,27.1,20.3,27.1,20.3
			s66.2-15.8,69.4-32.8c3.8-20.9-6.7-135.7-11.5-185.1c-1.3-12.8-12-22.6-24.9-22.6H391.6z"/>
		<path class="st6" d="M411.4,795v-15.9 M426.3,795.5v-15.9 M439.4,798.2v-15.9 M453.3,800.2v-15.9 M465.6,802.2v-15.9 M395.5,821
			v-15.9 M407,816.8v-15.9 M420.1,814.8v-15.9 M434,816.8v-15.9 M446.3,818.8v-15.9 M401.7,842.2v-15.9 M413.2,838v-15.9 M426.3,836
			v-15.9 M440.2,838v-15.9 M452.5,840v-15.9 M410,731.9V716 M424.9,732.4v-16 M438,735.1v-15.9 M452,737.1v-15.9 M464.3,739.1v-15.9
			 M394.2,757.9V742 M405.7,753.8v-16 M418.8,751.7v-15.9 M432.7,753.7v-15.9 M445,755.7v-15.9 M400.3,779.1v-15.9 M411.8,771.5
			v-15.9 M424.9,770.7v-15.9 M438.9,773.7v-15.9 M453.4,775.8v-15.9"/>
		<path class="st6" d="M428.1-7.8v-15.9 M443-7.3v-15.9 M456.1-4.6v-15.9 M470-2.6v-15.9 M482.3-0.6v-15.9 M412.2,18.2V2.3
			 M423.7,14V-1.9 M436.8,12V-3.9 M450.8,14V-1.9 M463.1,16V0.1 M418.4,39.4V23.5 M429.9,35.2V19.3 M443,33.2V17.3 M456.9,35.2V19.3
			 M469.2,37.2V21.3 M426.8-70.9v-15.9 M441.6-70.4v-15.9 M454.7-67.7v-15.9 M468.7-65.7v-15.9 M481-63.7v-15.9 M410.9-44.9v-15.9
			 M422.4-49.1V-65 M435.5-51.1V-67 M449.4-49.1V-65 M461.7-47.1V-63 M417-23.7v-15.9 M428.5-31.3v-15.9 M441.6-32.2v-15.9
			 M455.5-29v-16 M470.1-27v-16"/>
		<path class="st4" d="M233,712.8c0,15.9,12.4,29.1,28.3,30c54.6,3.2,171.1,9.3,191.9,3.8c27.4-7.2,20.3-27.1,20.3-27.1
			s-15.8-66.3-32.8-69.4c-20.3-3.7-129,6.1-180.5,11c-15.4,1.5-27.2,14.5-27.2,29.9V712.8z"/>
		<path class="st3" d="M520.5,611.5c0,8.6-6.7,15.7-15.3,16.2c-33.4,1.9-110.6,5.8-124.2,2.4c-17.4-4.3-12.9-16.1-12.9-16.1
			s10-39.4,20.8-41.3c13.2-2.3,85.3,3.9,116.9,6.8c8.4,0.8,14.8,7.8,14.8,16.2V611.5z"/>
		<path class="st2" d="M445.8,61.9c-16,0-29.3,12.1-30.8,28c-5.2,55.7-15.3,176.9-6.3,198.4c11,26.4,40.2,21.7,43.8,21l1-0.2
			c9.2-1.4,107.5-17,112.3-33.6c6.1-21.1-10.3-135.1-18.3-187.4C545.2,73,532.3,61.9,517,61.9H445.8z"/>
		<path class="st7" d="M383.1,628v16 M368.2,627.6v15.9 M355.1,624.9v15.9 M341.2,622.9v15.9 M328.9,620.9v15.9 M399,602v16
			 M387.5,606.2v15.9 M374.4,608.2v15.9 M360.5,606.2v15.9 M348.2,604.2v15.9 M392.8,580.9v15.9 M381.3,585v16 M368.2,587v15.9
			 M354.3,585v16 M342,583v16 M388.9,669.4v15.9 M375.8,671.4v15.9 M361.8,669.4v15.9 M349.5,667.4v15.9 M394.2,644v15.9
			 M382.7,651.6v15.9 M369.6,652.4v15.9 M355.7,649.3v15.9 M341.1,647.3v15.9"/>
		<path class="st9" d="M76.6,361.9h15.9 M76.1,376.8H92 M73.4,389.9h15.9 M71.4,403.9h15.9 M50.6,346.1h15.9 M54.8,357.5h15.9
			 M56.8,370.7h15.9 M54.8,384.6h15.9 M52.8,396.9h15.9 M29.4,352.2h15.9 M33.6,363.7h15.9 M35.6,376.8h15.9 M33.6,390.8h15.9
			 M31.6,403h15.9 M92.5,350.8h15.9"/>
	</g>
</g>
</svg>
