<?xml version="1.0" encoding="utf-8"?>
<!-- Generator: Adobe Illustrator 23.0.0, SVG Export Plug-In . SVG Version: 6.00 Build 0)  -->
<svg version="1.1" id="Layer_1" xmlns="http://www.w3.org/2000/svg" xmlns:xlink="http://www.w3.org/1999/xlink" x="0px" y="0px"
	 viewBox="0 0 450 850" style="enable-background:new 0 0 450 850;" xml:space="preserve">
<style type="text/css">
	.st0{clip-path:url(#SVGID_2_);}
	.st1{fill:#29367D;}
	.st2{fill:none;stroke:#F5F0F0;stroke-width:7.67;stroke-linecap:round;stroke-linejoin:round;}
	.st3{fill:none;stroke:#F5F0F0;stroke-width:7.3;stroke-linecap:round;stroke-linejoin:round;}
</style>
<title>pattern6</title>
<g>
	<defs>
		<rect id="SVGID_1_" x="0.3" y="-1.9" width="449.7" height="851.9"/>
	</defs>
	<clipPath id="SVGID_2_">
		<use xlink:href="#SVGID_1_"  style="overflow:visible;"/>
	</clipPath>
	<g class="st0">
		<rect x="0.3" y="-1.9" class="st1" width="449.4" height="851.9"/>
		<path class="st2" d="M231,205.4v53.9 M280.3,212.1v53.9 M327.5,222.7v54 M371.9,219.9v53.9 M410.7,194.3v53.9 M259.5,273.3v53.9
			 M301.1,280.1V334 M348.3,286.8v54 M392.7,280.1V334 M431.5,266v53.9 M194.3,329.7v53.9 M235.9,336.4v54 M283.1,343.2v53.9
			 M327.5,352.3v53.9 M377.8,354v53.9 M234-12.1v54 M275.7-5.4v53.9 M322.8,1.3v54 M367.2-5.4v53.9 M406.1-19.5v53.9 M254.9,59.6
			v53.9 M296.5,66.4v53.9 M343.7,73.1v54 M388.1,66.4v53.9 M426.9,52.3v53.9 M189.6,116v53.9 M231.3,122.7v54 M278.4,129.5v53.9
			 M322.8,138.6v53.9 M373.2,140.3v53.9 M14.6,205.4v53.9 M63.9,212.1v53.9 M111.1,222.7v54 M155.5,219.9v53.9 M194.4,194.3v53.9
			 M43.2,273.3v53.9 M84.8,280.1V334 M132,286.8v54 M176.4,280.1V334 M215.2,266v53.9 M-22,329.7v53.9 M19.6,336.4v54 M66.8,343.2
			v53.9 M111.2,352.3v53.9 M161.5,354v53.9 M17.7-12.1v54 M59.3-5.4v53.9 M106.5,1.3v54 M150.9-5.4v53.9 M189.7-19.5v53.9
			 M38.5,59.6v53.9 M80.2,66.4v53.9 M127.3,73.1v54 M171.7,66.4v53.9 M210.6,52.3v53.9 M-26.7,116v53.9 M14.9,122.7v54 M62.1,129.5
			v53.9 M106.5,138.6v53.9 M156.8,140.3v53.9"/>
		<path class="st2" d="M257.4,632.8v54 M306.7,639.6v53.9 M353.9,650.2v53.9 M398.3,647.2v53.9 M437.1,621.6v54 M285.9,700.8v53.9
			 M327.5,707.5v53.9 M374.7,714.3v53.9 M419.1,707.5v53.9 M457.9,693.5v54 M220.7,757.1V811 M262.3,763.8v54 M309.5,770.5v54
			 M353.9,779.7v53.9 M404.2,781.4v53.9 M260.5,415.3v53.9 M302.1,422v54 M349.2,428.8v54 M393.6,422v54 M432.5,408v53.9 M281.3,487
			v54 M322.9,493.8v53.9 M370.1,500.5v54 M414.5,493.8v53.9 M453.3,479.8v54 M216.1,543.5v53.9 M257.7,550.2v54 M304.9,557V611
			 M349.2,566v53.9 M399.6,567.7v53.9 M41.1,632.8v54 M90.4,639.6v53.9 M137.5,650.2v53.9 M181.9,647.2v53.9 M220.8,621.6v54
			 M69.6,700.8v53.9 M111.2,707.5v53.9 M158.4,714.2v53.9 M202.8,707.5v53.9 M241.6,693.4v54 M4.3,757.1V811 M46,763.8v54
			 M93.2,770.6v54 M137.6,779.7v53.9 M187.9,781.4v53.9 M44.1,415.3v53.9 M85.7,422v54 M132.9,428.8v54 M177.3,422v54 M216.1,408
			v53.9 M65,487v54 M106.6,493.8v53.9 M153.8,500.5v54 M198.2,493.8v53.9 M237,479.8v54 M-0.3,543.4v53.9 M41.3,550.1v54
			 M88.5,556.9v53.9 M132.9,566v53.9 M183.2,567.7v53.9"/>
		<path class="st2" d="M281.1,1058.6v53.9 M330.4,1065.3v53.9 M377.5,1075.9v53.9 M421.9,1073v53.9 M460.8,1047.4v54 M309.6,1126.5
			v53.9 M351.2,1133.3v53.9 M398.4,1140v53.9 M442.8,1133.2v53.9 M481.6,1119.2v53.9 M244.4,1182.9v54 M286,1189.7v53.9
			 M333.1,1196.4v54 M377.5,1205.6v54 M427.9,1207.3v53.9 M284.1,841v53.9 M325.7,847.7v54 M372.9,854.5v53.9 M417.3,847.8v54
			 M456.1,833.8v54 M305,912.8v53.9 M346.6,919.5v53.9 M393.8,926.2v53.9 M438.2,919.5v53.9 M477,905.4v54 M239.8,969.2v54
			 M281.4,975.9v53.9 M328.6,982.7v54 M372.9,991.8v53.9 M423.3,993.5v53.9 M64.7,1058.6v53.9 M114,1065.3v53.9 M161.2,1075.9v53.9
			 M205.6,1073v53.9 M244.4,1047.4v54 M93.2,1126.5v53.9 M134.9,1133.3v53.9 M182,1140v53.9 M226.4,1133.2v53.9 M265.2,1119.2v53.9
			 M28,1182.8v54 M69.6,1189.6v53.9 M116.8,1196.4v54 M161.2,1205.5v54 M211.6,1207.3v53.9 M67.8,841v53.9 M109.4,847.7v54
			 M156.6,854.5v53.9 M201,847.7v54 M239.8,833.7v54 M88.6,912.8v53.9 M130.2,919.5v53.9 M177.4,926.2v53.9 M221.8,919.5v53.9
			 M260.7,905.4v54 M23.4,969.1v54 M65,975.9v53.9 M112.2,982.6v54 M156.6,991.7v53.9 M206.9,993.4v53.9"/>
		<path class="st3" d="M-145.1,802.8v51.3 M-98.2,809.2v51.3 M-53.3,819.3v51.3 M-11.1,816.5v51.3 M25.9,792.1v51.3 M-118,867.4
			v51.3 M-78.4,873.8v51.3 M-33.5,880.2v51.3 M8.7,873.8v51.3 M45.7,860.4v51.3 M-180,921v51.3 M-140.4,927.4v51.3 M-95.5,933.8
			v51.3 M-53.3,942.5v51.3 M-5.4,944.1v51.3 M-142.2,595.8v51.3 M-102.6,602.2v51.3 M-57.7,608.7V660 M-15.5,602.3v51.3 M21.5,588.9
			v51.3 M-122.3,664.1v51.3 M-82.8,670.5v51.3 M-37.9,676.9v51.3 M4.3,670.5v51.3 M41.3,657.1v51.3 M-184.4,717.7V769 M-144.8,724.1
			v51.3 M-99.9,730.5v51.3 M-57.7,739.2v51.3 M-9.8,740.8v51.3 M-350.9,802.8v51.3 M-304,809.2v51.3 M-259.1,819.3v51.3
			 M-216.9,816.5v51.3 M-180,792.1v51.3 M-323.8,867.4v51.3 M-284.2,873.8v51.3 M-239.3,880.2v51.3 M-197.1,873.8v51.3
			 M-160.1,860.4v51.3 M-385.9,921v51.3 M-346.3,927.4v51.3 M-301.4,933.8v51.3 M-259.2,942.5v51.3 M-211.3,944.1v51.3 M-348,595.8
			v51.3 M-308.4,602.2v51.3 M-263.5,608.7V660 M-221.3,602.3v51.3 M-184.3,588.9v51.3 M-328.2,664.1v51.3 M-288.6,670.5v51.3
			 M-243.7,677v51.3 M-201.5,670.5v51.3 M-164.5,657.1v51.3 M-390.2,717.7V769 M-350.6,724.1v51.3 M-305.7,730.5v51.3 M-263.5,739.2
			v51.3 M-215.6,740.8v51.3"/>
	</g>
</g>
</svg>
