<?xml version="1.0" encoding="utf-8"?>
<!-- Generator: Adobe Illustrator 23.0.0, SVG Export Plug-In . SVG Version: 6.00 Build 0)  -->
<svg version="1.1" id="Layer_1" xmlns="http://www.w3.org/2000/svg" xmlns:xlink="http://www.w3.org/1999/xlink" x="0px" y="0px"
	 viewBox="0 0 450 850" style="enable-background:new 0 0 450 850;" xml:space="preserve">
<style type="text/css">
	.st0{clip-path:url(#SVGID_2_);}
	.st1{fill:#F5F0F0;}
	.st2{fill:#FF3333;}
	.st3{fill:#00F0BA;}
	.st4{fill:#29367D;}
	.st5{fill:none;stroke:#F7E829;stroke-width:7.81;stroke-linecap:round;stroke-linejoin:round;}
	.st6{fill:none;stroke:#FF3333;stroke-width:6.41;stroke-linecap:round;stroke-linejoin:round;}
	.st7{fill:none;stroke:#29367D;stroke-width:6.41;stroke-miterlimit:10;}
	.st8{fill:#F7E829;}
</style>
<title>patern4</title>
<g>
	<defs>
		<rect id="SVGID_1_" y="0.3" width="450" height="850.5"/>
	</defs>
	<clipPath id="SVGID_2_">
		<use xlink:href="#SVGID_1_"  style="overflow:visible;"/>
	</clipPath>
	<g class="st0">
		<rect y="0.3" class="st1" width="450" height="849.7"/>
		<path class="st2" d="M134.7,156c0,0,96.6,26.5,41.1,198.3s-199.9,6.2-199.9,6.2s-47-77.3,17.6-148S134.7,156,134.7,156"/>
		<path class="st3" d="M349.3,51.4c0,0-200.4-72.4-114,91.6s156.9,66.3,156.9,66.3S466.2,131.7,349.3,51.4"/>
		<path class="st4" d="M39,51.1c0,0,114.1-101.9,360.7-79.5S219.4,153,219.4,153s-60.1,24.4-180.4,0S39,51.1,39,51.1"/>
		<path class="st5" d="M231.4,421.4c0,0,95.8-12.7,50.8-110.7s-122-95.6-122-95.6S51.1,226.8,112,318.5S231.4,421.4,231.4,421.4z"/>
		<path class="st6" d="M482.3,106.1c0,0-117.9,116.2-298.3-11.3s49.1-135.4,49.1-135.4s112.6,35.7,216.2,8.1S545,45.9,482.3,106.1z"
			/>
		<path class="st7" d="M570,231.6c0,0-30.9-99-133.9-0.5s-87.2,181.9-87.2,181.9s32,114,125.2,1.2S570,231.6,570,231.6z"/>
		<path class="st4" d="M505.3,832.5c0,0-82.2,73.4-259.8,57.2s129.9-130.7,129.9-130.7s43.3-17.6,129.9,0S505.3,832.5,505.3,832.5"
			/>
		<path class="st2" d="M394.6,704.4c0,0-96.6-26.5-41.1-198.3s199.9-6.2,199.9-6.2s47,77.3-17.6,148S394.6,704.5,394.6,704.4"/>
		<path class="st8" d="M35,740.2c0,0-96.7-26.5-41.1-198.3s199.9-6.2,199.9-6.2s47,77.3-17.6,148S35,740.2,35,740.2"/>
		<path class="st3" d="M180.1,809c0,0,200.3,72.4,113.9-91.6s-156.9-66.3-156.9-66.3S63.1,728.8,180.1,809"/>
		<path class="st5" d="M329.5,496.8c0,0-95.9,12.7-50.8,110.7s122,95.6,122,95.6s109-11.7,48.1-103.4S329.5,496.8,329.5,496.8z"/>
		<path class="st6" d="M47,754.4c0,0,117.9-116.2,298.3,11.3s-49.1,135.4-49.1,135.4S183.6,865.5,80,893.1S-15.7,814.6,47,754.4z"/>
		<path class="st7" d="M19.6,511.3c0,0-55.4,87.7,86.4,102.3s195-51.5,195-51.5s66.1-98.2-80.2-96.1S19.6,511.3,19.6,511.3z"/>
	</g>
</g>
</svg>
