<?xml version="1.0" encoding="utf-8"?>
<!-- Generator: Adobe Illustrator 23.0.0, SVG Export Plug-In . SVG Version: 6.00 Build 0)  -->
<svg version="1.1" id="Layer_1" xmlns="http://www.w3.org/2000/svg" xmlns:xlink="http://www.w3.org/1999/xlink" x="0px" y="0px"
	 viewBox="0 0 450 850" style="enable-background:new 0 0 450 850;" xml:space="preserve">
<style type="text/css">
	.st0{clip-path:url(#SVGID_2_);}
	.st1{fill:#29367D;}
	.st2{fill:none;stroke:#F5F0F0;stroke-width:11.22;stroke-linecap:round;stroke-miterlimit:10;}
	.st3{fill:none;stroke:#F7E829;stroke-width:11;stroke-linecap:round;stroke-linejoin:round;}
	.st4{fill:none;stroke:#00F0BA;stroke-width:11.22;stroke-linecap:round;stroke-miterlimit:10;}
	.st5{fill:none;stroke:#FF3333;stroke-width:11.22;stroke-linecap:round;stroke-miterlimit:10;}
</style>
<title>pattern5</title>
<g>
	<defs>
		<rect id="SVGID_1_" y="-1.9" width="449.4" height="852"/>
	</defs>
	<clipPath id="SVGID_2_">
		<use xlink:href="#SVGID_1_"  style="overflow:visible;"/>
	</clipPath>
	<g class="st0">
		<rect y="-1.9" class="st1" width="449.4" height="851.9"/>
		<path class="st2" d="M250.6-1.9V127 M225.1-1.9v166.8 M198.6-1.9v164.4 M174.3-1.9V127 M149.9,90.5V-1.9 M124.9-1.9V127 M99.3-1.9
			v166.8 M73.8-1.9v227.5 M48.5-1.9V127 M24,90.5V-1.9"/>
		<path class="st3" d="M301.6,448.5l-86.5-143.9 M366.2,503.3L211.6,249.1 M406.3,516l-170.4-278 M450,538.7L280.6,265.3 M326,293.4
			L495.9,566 M517.3,553.1L323,239.8 M514.3,500.1L319.4,184.2 M513.4,451.6l-168-273.9 M517.5,412.3L388.4,200.5 M433.9,228.6
			l62,103.2"/>
		<path class="st4" d="M-2.3,279.5l167.9-0.6 M118.1,303.5L-2.3,304 M-2.2,329l167.9-0.6 M-18.1,354.5l217.3-0.8"/>
		<path class="st5" d="M547.1,23.9l-140,92.6 M533,2.6L351.7,122.5 M504.6-11.3l-140,92.6 M490.6-32.6L309.2,87.3 M475.9-54.7
			L297.2,63.5 M462.5-75l-140,92.6"/>
		<path class="st2" d="M571.5,688.5v161.6 M539.5,640.9v209.2 M506.3,643.8v206.2 M475.8,688.5v161.6 M445.1,850.1V734.2
			 M413.7,688.5v161.6 M381.7,640.9v209.2 M349.7,564.8v285.3 M318,688.5v161.6 M287.3,850.1V734.2"/>
		<path class="st3" d="M34.8,786.2l134.9-100 M-13.5,855.7l238.1-178.4 M-22.3,896.9l260.2-196.5 M-40.7,942.6l255.8-195.1
			 M191.5,795.6L-63.5,991 M-48.6,1011.1l293.2-223.7"/>
		<path class="st5" d="M128.9,426.7l1.1,189.6 M99.8,426.4l1.5,245.4 M68.9,444.2l1.2,189.6 M39.9,444l1.5,245.4 M9.8,443.7
			l1.5,241.9 M-17.8,443.5l1.1,189.5"/>
		<path class="st5" d="M183.5,424.1l1.5,166 M158.1,423.8l2,214.9"/>
	</g>
</g>
</svg>
