<?xml version="1.0" encoding="utf-8"?>
<!-- Generator: Adobe Illustrator 23.0.0, SVG Export Plug-In . SVG Version: 6.00 Build 0)  -->
<svg version="1.1" id="Layer_1" xmlns="http://www.w3.org/2000/svg" xmlns:xlink="http://www.w3.org/1999/xlink" x="0px" y="0px"
	 viewBox="0 0 450 850" style="enable-background:new 0 0 450 850;" xml:space="preserve">
<style type="text/css">
	.st0{clip-path:url(#SVGID_2_);}
	.st1{fill:#29367D;}
	.st2{fill:none;stroke:#00F0BA;stroke-width:10.0002;stroke-linecap:round;stroke-linejoin:round;}
	.st3{fill:none;stroke:#F7E829;stroke-width:10.0002;stroke-linecap:round;stroke-linejoin:round;}
	.st4{fill:none;stroke:#FF3333;stroke-width:10.0002;stroke-linecap:round;stroke-linejoin:round;}
	.st5{fill:none;stroke:#F5F0F0;stroke-width:10.0002;stroke-linecap:round;stroke-linejoin:round;}
	.st6{fill:none;}
	.st7{fill:none;stroke:#29367D;stroke-width:10.0002;stroke-linecap:round;stroke-linejoin:round;}
</style>
<title>pattern1</title>
<g>
	<defs>
		<rect id="SVGID_1_" x="-1" y="0.3" width="451" height="851.8"/>
	</defs>
	<clipPath id="SVGID_2_">
		<use xlink:href="#SVGID_1_"  style="overflow:visible;"/>
	</clipPath>
	<g class="st0">
		<rect x="-1.5" y="0.3" class="st1" width="451.5" height="851.8"/>
		<path class="st2" d="M21.4,90.9c0,0,38.7,13.5,53-29.1s51.3-28.1,51.3-28.1"/>
		<path class="st3" d="M182.4,179.1c0,0,19.4-36.1-20.4-56.9s-19.7-55.1-19.7-55.1"/>
		<path class="st4" d="M96.1,196c0,0-4.8-40.7-49.4-34.9C2.1,167-1,127.3-1,127.3"/>
		<path class="st2" d="M309.4,88.5c0,0-21-35.2-59.3-11.8s-57.4-11.5-57.4-11.5"/>
		<path class="st5" d="M121.2,153.2c0,0-4.8-40.7-49.4-34.9 M161.2,29.4c0,0,38.7,13.5,53-29.1 M300.1,150.2c0,0-40.9-3-43.7,41.9
			s-42.3,40.4-42.3,40.4"/>
		<path class="st2" d="M128.7,204.8c0,0,23.4,33.7,60,7.6"/>
		<path class="st3" d="M38.3-6.3c0,0-32.4,25.1-4.5,60.3"/>
		<path class="st4" d="M213.1,140.7c0,0,38.7,13.5,53-29.1 M254.6,49.3c0,0,28.1-29.9-5-60.3"/>
		<path class="st3" d="M3.5,222.3c0,0,38.7,13.5,53-29.1"/>
		<rect x="-1.5" y="2" class="st6" width="280.5" height="233.6"/>
		<path class="st2" d="M245,396c0,0-38.7-13.5-53,29.1s-51.3,28.1-51.3,28.1"/>
		<path class="st3" d="M83.9,307.8c0,0-19.4,36.1,20.5,56.9c39.9,20.8,19.7,55.1,19.7,55.1"/>
		<path class="st4" d="M170.2,290.9c0,0,4.8,40.7,49.4,34.9c44.6-5.8,47.7,33.8,47.7,33.8"/>
		<path class="st2" d="M-43.1,398.4c0,0,21,35.2,59.3,11.8s57.4,11.5,57.4,11.5"/>
		<path class="st5" d="M145.1,333.7c0,0,4.8,40.7,49.4,34.9 M105.1,457.5c0,0-38.7-13.5-53,29.1 M-33.8,336.7c0,0,40.9,3,43.7-41.9
			s42.3-40.4,42.3-40.4"/>
		<path class="st4" d="M137.6,282.1c0,0-23.4-33.7-60-7.6"/>
		<path class="st3" d="M228,493.2c0,0,32.4-25.1,4.4-60.3"/>
		<path class="st4" d="M53.2,346.3c0,0-38.7-13.5-53,29.1 M11.7,437.6c0,0-28.1,29.9,5,60.3"/>
		<path class="st3" d="M262.9,264.6c0,0-38.7-13.5-53,29.1"/>
		<rect x="-12.6" y="251.3" class="st6" width="280.5" height="233.6"/>
		<path class="st3" d="M383.6,406.2c0,0-19.4,36.1,20.5,56.9s19.7,55.1,19.7,55.1"/>
		<path class="st2" d="M256.6,496.8c0,0,21,35.2,59.3,11.8c38.3-23.5,57.4,11.5,57.4,11.5"/>
		<path class="st5" d="M395.8,206.6c0,0,4.8,40.7,49.4,34.9"/>
		<path class="st5" d="M432.5,549.9c0,0-38.7-13.5-53,29.1"/>
		<path class="st5" d="M293.6,429c0,0,40.9,3,43.7-41.9s42.3-40.4,42.3-40.4"/>
		<path class="st2" d="M437.3,380.6c0,0-23.4-33.7-60-7.6"/>
		<path class="st4" d="M352.9,444.7c0,0-38.7-13.5-53,29.1 M311.4,536c0,0-28.1,29.9,5,60.3"/>
		<rect x="314.8" y="343.7" class="st6" width="280.5" height="233.6"/>
		<path class="st2" d="M321,189.3c0,0,38.7,13.5,53-29.1s51.3-28.1,51.3-28.1"/>
		<path class="st3" d="M409.9,95.6c0,0,19.4-36.1-20.5-56.9s-19.7-55.1-19.7-55.1"/>
		<path class="st4" d="M395.8,294.5c0,0-4.8-40.7-49.4-34.9c-44.6,5.8-47.7-33.8-47.7-33.8"/>
		<path class="st2" d="M506.1-28.7c0,0-36-19.6-57,20.2S393.9,11,393.9,11"/>
		<path class="st7" d="M348.6,69.8c0,0-4.8-40.7-49.4-34.9 M388.6-54.1c0,0,38.7,13.5,53-29.1 M527.5,66.8c0,0-40.9-3-43.7,41.9
			S441.6,149,441.6,149"/>
		<path class="st3" d="M338,92.1c0,0-32.4,25.1-4.5,60.3"/>
		<path class="st3" d="M303.1,320.7c0,0,38.7,13.5,53-29.1"/>
		<rect x="325.9" y="94.4" class="st6" width="280.5" height="233.6"/>
		<path class="st2" d="M-46,554.4c0,0-13.5,38.7,29.1,53s28.1,51.3,28.1,51.3"/>
		<path class="st4" d="M404.3,614.1c0,0,4.8,40.7,49.4,34.9c44.6-5.8,47.7,33.8,47.7,33.8"/>
		<path class="st5" d="M-108.4,654.3c0,0,40.7-4.8,34.9-49.4 M15.5,694.3c0,0-13.6,38.7,29.1,53 M-105.4,833.2c0,0,3-40.9-41.8-43.7
			s-40.4-42.3-40.4-42.3"/>
		<path class="st3" d="M51.2,571.4c0,0-25.1-32.4-60.3-4.4"/>
		<path class="st4" d="M-95.8,746.2c0,0-13.5,38.7,29.1,53 M-4.4,787.7c0,0,29.9,28.1,60.3-5"/>
		<rect x="-190.8" y="531.5" class="st6" width="233.6" height="280.5"/>
		<path class="st2" d="M255.5,681.6c0,0,38.7,13.5,53-29.1c14.3-42.6,51.3-28.1,51.3-28.1"/>
		<path class="st3" d="M416.6,769.8c0,0,19.4-36.1-20.5-56.9s-19.7-55.1-19.7-55.1"/>
		<path class="st4" d="M330.2,786.7c0,0-4.8-40.7-49.4-34.9c-44.6,5.8-47.7-33.8-47.7-33.8"/>
		<path class="st4" d="M362.8,795.4c0,0,23.4,33.7,60,7.6"/>
		<path class="st3" d="M272.5,584.4c0,0-32.5,25.1-4.5,60.3"/>
		<path class="st3" d="M237.6,813c0,0,38.7,13.5,53-29.1"/>
		<rect x="232.6" y="592.7" class="st6" width="280.5" height="233.6"/>
		<path class="st3" d="M116.9,671.3c0,0,19.4-36.1-20.5-56.9s-19.7-55.1-19.7-55.1"/>
		<path class="st2" d="M243.8,580.7c0,0-21-35.2-59.3-11.8c-38.3,23.5-57.4-11.5-57.4-11.5"/>
		<path class="st5" d="M104.7,871c0,0-4.8-40.7-49.4-34.9"/>
		<path class="st7" d="M67.9,527.7c0,0,38.7,13.5,53-29.1"/>
		<path class="st5" d="M206.8,648.5c0,0-40.9-3-43.7,41.9s-42.3,40.4-42.3,40.4"/>
		<path class="st2" d="M63.2,697c0,0,23.4,33.7,60,7.6"/>
		<path class="st4" d="M147.6,632.9c0,0,38.7,13.5,53-29.1 M189.1,541.5c0,0,28.1-29.9-5-60.3"/>
		<rect x="-94.9" y="500.3" class="st6" width="280.5" height="233.6"/>
		<path class="st4" d="M104.7,783.1c0,0,4.8,40.7,49.4,34.9c44.6-5.8,47.7,33.8,47.7,33.8"/>
		<path class="st7" d="M-24.9,881.7c0,0,40.7-4.8,34.9-49.4 M99,921.7c0,0-13.5,38.7,29.1,53 M-21.9,1060.6c0,0,3-40.9-41.8-43.7
			c-44.8-2.8-40.4-42.3-40.4-42.3"/>
		<path class="st3" d="M197.3,756.8c0,0-38.7-13.5-53,29.1"/>
	</g>
</g>
</svg>
