<?xml version="1.0" encoding="utf-8"?>
<!-- Generator: Adobe Illustrator 23.0.0, SVG Export Plug-In . SVG Version: 6.00 Build 0)  -->
<svg version="1.1" id="Layer_1" xmlns="http://www.w3.org/2000/svg" xmlns:xlink="http://www.w3.org/1999/xlink" x="0px" y="0px"
	 viewBox="0 0 450 850" style="enable-background:new 0 0 450 850;" xml:space="preserve">
<style type="text/css">
	.st0{fill:#29367D;}
	.st1{fill:#00F0BA;}
	.st2{fill:#F5F0F0;}
	.st3{fill:#F7E829;}
	.st4{fill:#FF3333;}
	.st5{fill:none;}
</style>
<title>patern3</title>
<rect x="0.5" y="-1.9" class="st0" width="450.5" height="854"/>
<path class="st1" d="M0.4,207.8c0,0,20.1-41.1,41.4-29.9s35.4,29.9,52.2,29.9s25.2-84,48.2-76.5s-0.9,37.7,34.2,37
	c16.4-0.3,8.8,28.8,18,39.5c10.2,4.4,32.9,6.7,41-39.5c7.7-43.3,27.9-16.6,27.9-16.6c16.1,18.6,29.2,56.6,42.7,56.5
	c16.5-0.1,41-49.1,68.9-39.7c27.9,9.4,12.6,29.2,27.6,39.9c15,10.7,23.2-34.1,41.3-39.8s6.9,0.8,6.9,0.8v218.3H0.4V207.8z"/>
<path class="st2" d="M0.5,378c0,0-5.9-50.3,23.6-38.3S51.6,378,76.7,378s27.2-42,48.2-40.2s10.5,37.7,21,40.2
	c10.5,2.4,76.7-74.2,114.5-73.4c42.1,0.9,37.9,71.2,72.6,73.5s26.3-31.2,47.3-31.2c21,0,22.1,24.3,41,31.3c18.9,7,29.6-42,29.6-42
	v209.5H0L0.5,378z"/>
<path class="st3" d="M450.7,530.7c0,0-38.9-135.7-102.1-34.6s-98.1-25.3-98.1-25.3s-12.2-65.2-56.3,0s-61.6,60-87.3,37.4
	s-59.5,27.2-59.5,27.2s-33.9,8.8-47.3-87v263.4h450.5L450.7,530.7z"/>
<path class="st4" d="M0,698.8c0,0,8.3-113.3,39.8-87.8s30.3,69.8,61.8,69.8s8.2-78.4,35-74.1s33.4,67.8,58.1,74.1
	s41-117.4,88.8-98.4s22.1,83,76.9,98.6S408,581.6,422,580.5s29,51,29,51v220.6H0.5L0,698.8z"/>
<rect y="-1.9" class="st5" width="454.2" height="854"/>
</svg>
